# xmcd CD database file
# Copyright (C) 1996 Ti Kan
#
# Track frame offsets:
#	225
#	13075
#	26875
#	40592
#	53297
#	70700
#	83322
#	96610
#	111727
#	127277
#	136737
#	149767
#	162182
#	179682
#	191035
#	206737
#
# Disc length: 2967 seconds
#
# Revision: 1
# Processed by: cddbd v1.4b41PL1 Copyright (c) Steve Scherf et al.
# Submitted via: EasyCD 2.21 - (C) 1996 Greg Leichner
#
DISCID=ee0b9410
DTITLE=Percy Sledge - Greatest Hits
DYEAR=1900
DGENRE=
TTITLE0=When a man loves a woman
TTITLE1=Take time to know her
TTITLE2=My special prayer
TTITLE3=It tears me up
TTITLE4=Try a little tenderness
TTITLE5=Cover me
TTITLE6=I've been loving you too long
TTITLE7=Warm and tender love
TTITLE8=Bring it on home to me
TTITLE9=That's how strong my love is
TTITLE10=You really got a hold on me
TTITLE11=Sudden stop
TTITLE12=If loving you is wrong
TTITLE13=Baby help me
TTITLE14=Out of left field
TTITLE15=Just out of reach (of my two empty arms)
EXTD=
EXTT0=
EXTT1=
EXTT2=
EXTT3=
EXTT4=
EXTT5=
EXTT6=
EXTT7=
EXTT8=
EXTT9=
EXTT10=
EXTT11=
EXTT12=
EXTT13=
EXTT14=
EXTT15=
PLAYORDER=
